<!-- Generator: Adobe Illustrator 26.3.1, SVG Export Plug-In . SVG Version: 6.00 Build 0)  -->
<svg version="1.1" xmlns="http://www.w3.org/2000/svg" x="0px" y="0px" viewBox="0 0 257.2 238.3">
	<path fill="#23DD80" d="M108.2,0.3c51.3-0.7,102.3,0,153,2c-7,15.7-18.3,27-34,34c-2.5,0.3-13.6,3.8-17,5.5c-35,0.3-70,0.7-105,1
		c-11.1,28.4-34.2,87.4-34,88.5c15.2-0.3,30.2,0,45,1c-10.2,27.8-19.7,55.8-28.5,84c27.7-34.9,84.7-106.9,84.5-108
		c-15.5,0.3-30.9,0-46-1c6.6-13.3,13.6-26.3,21-39c14.9-0.7,74.7-0.3,89,1c-2.5,6.4-49.2,128.5-65,168.5c-44.4,1-88.2-0.6-132.5-2.2
		c-16.9-6.1-28.7-16.3-34.5-33.3c-0.8-5.3-1.1-10.6-1-16c-0.2-2.4,0.1-4.8,1-7c1.4-2.4,43.9-114,59.5-154
		c7.4-11.4,17.5-19.1,30.5-23C98.8,1,103.4,0.4,108.2,0.3z" />
</svg>